<?xml version="1.0" standalone="no"?>
<!DOCTYPE svg PUBLIC "-//W3C//DTD SVG 20010904//EN"
 "http://www.w3.org/TR/2001/REC-SVG-20010904/DTD/svg10.dtd">
<svg version="1.0" xmlns="http://www.w3.org/2000/svg"
 width="960.000000pt" height="960.000000pt" viewBox="0 0 960.000000 960.000000"
 preserveAspectRatio="xMidYMid meet">
<metadata>
Created by potrace 1.14, written by Peter Selinger 2001-2017
</metadata>
<g transform="translate(0.000000,960.000000) scale(0.100000,-0.100000)"
fill="#000000" stroke="none">
<path d="M1080 9583 c-52 -8 -141 -29 -197 -48 -204 -68 -347 -157 -504 -314
-157 -157 -246 -300 -314 -504 -70 -210 -65 74 -65 -3917 0 -3991 -5 -3707 65
-3917 68 -204 157 -347 314 -504 157 -157 300 -246 504 -314 210 -70 -74 -65
3917 -65 3991 0 3707 -5 3917 65 204 68 347 157 504 314 157 157 246 300 314
504 70 210 65 -74 65 3917 0 3991 5 3707 -65 3917 -68 204 -157 347 -314 504
-157 157 -300 246 -504 314 -210 70 76 65 -3928 64 -3108 -1 -3627 -3 -3709
-16z m4585 -1652 c365 -28 517 -51 684 -107 254 -84 440 -201 641 -403 161
-162 248 -280 334 -456 126 -254 187 -516 202 -865 18 -425 -65 -826 -231
-1120 -154 -272 -322 -458 -553 -611 -276 -183 -492 -265 -809 -308 -355 -48
-642 -61 -1390 -61 l-593 0 0 -1195 0 -1195 -640 0 -640 0 0 3171 0 3170 1423
-4 c929 -3 1474 -8 1572 -16z"/>
<path d="M3950 5976 l0 -906 448 0 c1080 0 1332 51 1584 318 169 179 249 433
219 697 -23 204 -86 346 -214 482 -176 186 -364 264 -702 293 -71 6 -401 14
-732 17 l-603 6 0 -907z"/>
</g>
</svg>
